<mxfile host="app.diagrams.net" modified="2023-03-21T10:42:04.040Z" agent="5.0 (Windows NT 10.0; Win64; x64) AppleWebKit/537.36 (KHTML, like Gecko) Chrome/111.0.0.0 Safari/537.36 Edg/111.0.1661.44" etag="kByCseHfLLyrIgbPySJq" version="21.0.8" type="github">
  <diagram name="Page-1" id="IfERYH7wBA60UohbNIlO">
    <mxGraphModel dx="2204" dy="760" grid="1" gridSize="10" guides="1" tooltips="1" connect="1" arrows="1" fold="1" page="1" pageScale="1" pageWidth="850" pageHeight="1100" math="0" shadow="0">
      <root>
        <mxCell id="0" />
        <mxCell id="1" parent="0" />
        <mxCell id="xIak3zuEA5ebnnhG0JyV-5" value="location ID" style="ellipse;whiteSpace=wrap;html=1;align=center;" vertex="1" parent="1">
          <mxGeometry x="260" y="80" width="100" height="40" as="geometry" />
        </mxCell>
        <mxCell id="xIak3zuEA5ebnnhG0JyV-41" style="rounded=0;orthogonalLoop=1;jettySize=auto;html=1;entryX=0.5;entryY=1;entryDx=0;entryDy=0;endArrow=none;endFill=0;" edge="1" parent="1" source="xIak3zuEA5ebnnhG0JyV-6" target="xIak3zuEA5ebnnhG0JyV-5">
          <mxGeometry relative="1" as="geometry" />
        </mxCell>
        <mxCell id="xIak3zuEA5ebnnhG0JyV-42" style="rounded=0;orthogonalLoop=1;jettySize=auto;html=1;endArrow=none;endFill=0;" edge="1" parent="1" source="xIak3zuEA5ebnnhG0JyV-6" target="xIak3zuEA5ebnnhG0JyV-7">
          <mxGeometry relative="1" as="geometry" />
        </mxCell>
        <mxCell id="xIak3zuEA5ebnnhG0JyV-43" style="rounded=0;orthogonalLoop=1;jettySize=auto;html=1;entryX=0.42;entryY=1.007;entryDx=0;entryDy=0;endArrow=none;endFill=0;entryPerimeter=0;" edge="1" parent="1" source="xIak3zuEA5ebnnhG0JyV-6" target="xIak3zuEA5ebnnhG0JyV-8">
          <mxGeometry relative="1" as="geometry" />
        </mxCell>
        <mxCell id="xIak3zuEA5ebnnhG0JyV-61" style="rounded=0;orthogonalLoop=1;jettySize=auto;html=1;entryX=0.5;entryY=0;entryDx=0;entryDy=0;endArrow=none;endFill=0;" edge="1" parent="1" source="xIak3zuEA5ebnnhG0JyV-6" target="xIak3zuEA5ebnnhG0JyV-58">
          <mxGeometry relative="1" as="geometry" />
        </mxCell>
        <mxCell id="xIak3zuEA5ebnnhG0JyV-6" value="Ronaldâ€™s Restaurant" style="whiteSpace=wrap;html=1;align=center;" vertex="1" parent="1">
          <mxGeometry x="350" y="150" width="100" height="40" as="geometry" />
        </mxCell>
        <mxCell id="xIak3zuEA5ebnnhG0JyV-7" value="address" style="ellipse;whiteSpace=wrap;html=1;align=center;" vertex="1" parent="1">
          <mxGeometry x="310" y="30" width="100" height="40" as="geometry" />
        </mxCell>
        <mxCell id="xIak3zuEA5ebnnhG0JyV-8" value="sales tax" style="ellipse;whiteSpace=wrap;html=1;align=center;" vertex="1" parent="1">
          <mxGeometry x="390" y="70" width="100" height="40" as="geometry" />
        </mxCell>
        <mxCell id="xIak3zuEA5ebnnhG0JyV-29" value="" style="rounded=0;orthogonalLoop=1;jettySize=auto;html=1;endArrow=none;endFill=0;" edge="1" parent="1" source="xIak3zuEA5ebnnhG0JyV-9" target="xIak3zuEA5ebnnhG0JyV-17">
          <mxGeometry relative="1" as="geometry" />
        </mxCell>
        <mxCell id="xIak3zuEA5ebnnhG0JyV-30" style="rounded=0;orthogonalLoop=1;jettySize=auto;html=1;entryX=0.5;entryY=1;entryDx=0;entryDy=0;endArrow=none;endFill=0;" edge="1" parent="1" source="xIak3zuEA5ebnnhG0JyV-9" target="xIak3zuEA5ebnnhG0JyV-16">
          <mxGeometry relative="1" as="geometry" />
        </mxCell>
        <mxCell id="xIak3zuEA5ebnnhG0JyV-31" style="rounded=0;orthogonalLoop=1;jettySize=auto;html=1;entryX=0.5;entryY=1;entryDx=0;entryDy=0;endArrow=none;endFill=0;" edge="1" parent="1" source="xIak3zuEA5ebnnhG0JyV-9" target="xIak3zuEA5ebnnhG0JyV-13">
          <mxGeometry relative="1" as="geometry" />
        </mxCell>
        <mxCell id="xIak3zuEA5ebnnhG0JyV-32" style="rounded=0;orthogonalLoop=1;jettySize=auto;html=1;endArrow=none;endFill=0;" edge="1" parent="1" source="xIak3zuEA5ebnnhG0JyV-9" target="xIak3zuEA5ebnnhG0JyV-10">
          <mxGeometry relative="1" as="geometry" />
        </mxCell>
        <mxCell id="xIak3zuEA5ebnnhG0JyV-33" style="rounded=0;orthogonalLoop=1;jettySize=auto;html=1;entryX=0.42;entryY=-0.035;entryDx=0;entryDy=0;entryPerimeter=0;endArrow=none;endFill=0;" edge="1" parent="1" source="xIak3zuEA5ebnnhG0JyV-9" target="xIak3zuEA5ebnnhG0JyV-11">
          <mxGeometry relative="1" as="geometry" />
        </mxCell>
        <mxCell id="xIak3zuEA5ebnnhG0JyV-34" style="rounded=0;orthogonalLoop=1;jettySize=auto;html=1;entryX=0.5;entryY=0;entryDx=0;entryDy=0;endArrow=none;endFill=0;" edge="1" parent="1" source="xIak3zuEA5ebnnhG0JyV-9" target="xIak3zuEA5ebnnhG0JyV-12">
          <mxGeometry relative="1" as="geometry" />
        </mxCell>
        <mxCell id="xIak3zuEA5ebnnhG0JyV-35" style="rounded=0;orthogonalLoop=1;jettySize=auto;html=1;entryX=0.6;entryY=-0.085;entryDx=0;entryDy=0;entryPerimeter=0;endArrow=none;endFill=0;" edge="1" parent="1" source="xIak3zuEA5ebnnhG0JyV-9" target="xIak3zuEA5ebnnhG0JyV-15">
          <mxGeometry relative="1" as="geometry" />
        </mxCell>
        <mxCell id="xIak3zuEA5ebnnhG0JyV-9" value="Employee" style="whiteSpace=wrap;html=1;align=center;" vertex="1" parent="1">
          <mxGeometry x="100" y="460" width="100" height="40" as="geometry" />
        </mxCell>
        <mxCell id="xIak3zuEA5ebnnhG0JyV-10" value=" employee ID" style="ellipse;whiteSpace=wrap;html=1;align=center;" vertex="1" parent="1">
          <mxGeometry x="-330" y="455" width="100" height="40" as="geometry" />
        </mxCell>
        <mxCell id="xIak3zuEA5ebnnhG0JyV-11" value="name" style="ellipse;whiteSpace=wrap;html=1;align=center;" vertex="1" parent="1">
          <mxGeometry x="-20" y="500" width="100" height="40" as="geometry" />
        </mxCell>
        <mxCell id="xIak3zuEA5ebnnhG0JyV-12" value="address" style="ellipse;whiteSpace=wrap;html=1;align=center;" vertex="1" parent="1">
          <mxGeometry x="-130" y="500" width="100" height="40" as="geometry" />
        </mxCell>
        <mxCell id="xIak3zuEA5ebnnhG0JyV-13" value="phone number," style="ellipse;whiteSpace=wrap;html=1;align=center;" vertex="1" parent="1">
          <mxGeometry x="-240" y="410" width="100" height="40" as="geometry" />
        </mxCell>
        <mxCell id="xIak3zuEA5ebnnhG0JyV-15" value="email address" style="ellipse;whiteSpace=wrap;html=1;align=center;" vertex="1" parent="1">
          <mxGeometry x="-240" y="500" width="100" height="40" as="geometry" />
        </mxCell>
        <mxCell id="xIak3zuEA5ebnnhG0JyV-16" value="SSN" style="ellipse;whiteSpace=wrap;html=1;align=center;" vertex="1" parent="1">
          <mxGeometry x="-130" y="410" width="100" height="40" as="geometry" />
        </mxCell>
        <mxCell id="xIak3zuEA5ebnnhG0JyV-17" value="birthdate" style="ellipse;whiteSpace=wrap;html=1;align=center;" vertex="1" parent="1">
          <mxGeometry x="-20" y="410" width="100" height="40" as="geometry" />
        </mxCell>
        <mxCell id="xIak3zuEA5ebnnhG0JyV-20" style="rounded=0;orthogonalLoop=1;jettySize=auto;html=1;endArrow=none;endFill=0;" edge="1" parent="1" source="xIak3zuEA5ebnnhG0JyV-19" target="xIak3zuEA5ebnnhG0JyV-58">
          <mxGeometry relative="1" as="geometry" />
        </mxCell>
        <mxCell id="xIak3zuEA5ebnnhG0JyV-21" style="rounded=0;orthogonalLoop=1;jettySize=auto;html=1;entryX=0.5;entryY=0;entryDx=0;entryDy=0;endArrow=none;endFill=0;" edge="1" parent="1" source="xIak3zuEA5ebnnhG0JyV-19" target="xIak3zuEA5ebnnhG0JyV-9">
          <mxGeometry relative="1" as="geometry" />
        </mxCell>
        <mxCell id="xIak3zuEA5ebnnhG0JyV-19" value="employs&lt;br&gt;" style="shape=rhombus;perimeter=rhombusPerimeter;whiteSpace=wrap;html=1;align=center;" vertex="1" parent="1">
          <mxGeometry x="115" y="380" width="70" height="40" as="geometry" />
        </mxCell>
        <mxCell id="xIak3zuEA5ebnnhG0JyV-27" style="rounded=0;orthogonalLoop=1;jettySize=auto;html=1;entryX=0.5;entryY=1;entryDx=0;entryDy=0;endArrow=none;endFill=0;shape=link;" edge="1" parent="1" source="xIak3zuEA5ebnnhG0JyV-22" target="xIak3zuEA5ebnnhG0JyV-9">
          <mxGeometry relative="1" as="geometry" />
        </mxCell>
        <mxCell id="xIak3zuEA5ebnnhG0JyV-22" value="d" style="ellipse;whiteSpace=wrap;html=1;aspect=fixed;" vertex="1" parent="1">
          <mxGeometry x="135" y="540" width="30" height="30" as="geometry" />
        </mxCell>
        <mxCell id="xIak3zuEA5ebnnhG0JyV-26" style="rounded=0;orthogonalLoop=1;jettySize=auto;html=1;entryX=0;entryY=1;entryDx=0;entryDy=0;endArrow=none;endFill=0;" edge="1" parent="1" source="xIak3zuEA5ebnnhG0JyV-24" target="xIak3zuEA5ebnnhG0JyV-22">
          <mxGeometry relative="1" as="geometry" />
        </mxCell>
        <mxCell id="xIak3zuEA5ebnnhG0JyV-24" value="part-time employee" style="whiteSpace=wrap;html=1;align=center;" vertex="1" parent="1">
          <mxGeometry x="10" y="610" width="100" height="40" as="geometry" />
        </mxCell>
        <mxCell id="xIak3zuEA5ebnnhG0JyV-28" style="rounded=0;orthogonalLoop=1;jettySize=auto;html=1;entryX=1;entryY=1;entryDx=0;entryDy=0;endArrow=none;endFill=0;" edge="1" parent="1" source="xIak3zuEA5ebnnhG0JyV-25" target="xIak3zuEA5ebnnhG0JyV-22">
          <mxGeometry relative="1" as="geometry">
            <mxPoint x="170" y="570" as="targetPoint" />
          </mxGeometry>
        </mxCell>
        <mxCell id="xIak3zuEA5ebnnhG0JyV-62" style="rounded=0;orthogonalLoop=1;jettySize=auto;html=1;endArrow=none;endFill=0;entryX=0.25;entryY=0;entryDx=0;entryDy=0;" edge="1" parent="1" source="xIak3zuEA5ebnnhG0JyV-25" target="xIak3zuEA5ebnnhG0JyV-40">
          <mxGeometry relative="1" as="geometry">
            <mxPoint x="347.5" y="690" as="targetPoint" />
          </mxGeometry>
        </mxCell>
        <mxCell id="xIak3zuEA5ebnnhG0JyV-25" value="full-time employee" style="whiteSpace=wrap;html=1;align=center;" vertex="1" parent="1">
          <mxGeometry x="200" y="610" width="100" height="40" as="geometry" />
        </mxCell>
        <mxCell id="xIak3zuEA5ebnnhG0JyV-38" style="rounded=0;orthogonalLoop=1;jettySize=auto;html=1;entryX=0.5;entryY=1;entryDx=0;entryDy=0;endArrow=none;endFill=0;" edge="1" parent="1" source="xIak3zuEA5ebnnhG0JyV-36" target="xIak3zuEA5ebnnhG0JyV-24">
          <mxGeometry relative="1" as="geometry" />
        </mxCell>
        <mxCell id="xIak3zuEA5ebnnhG0JyV-36" value="hourly rate" style="ellipse;whiteSpace=wrap;html=1;align=center;" vertex="1" parent="1">
          <mxGeometry x="10" y="700" width="100" height="40" as="geometry" />
        </mxCell>
        <mxCell id="xIak3zuEA5ebnnhG0JyV-39" style="rounded=0;orthogonalLoop=1;jettySize=auto;html=1;endArrow=none;endFill=0;" edge="1" parent="1" source="xIak3zuEA5ebnnhG0JyV-37" target="xIak3zuEA5ebnnhG0JyV-25">
          <mxGeometry relative="1" as="geometry" />
        </mxCell>
        <mxCell id="xIak3zuEA5ebnnhG0JyV-37" value="annual salary" style="ellipse;whiteSpace=wrap;html=1;align=center;" vertex="1" parent="1">
          <mxGeometry x="165" y="710" width="100" height="40" as="geometry" />
        </mxCell>
        <mxCell id="xIak3zuEA5ebnnhG0JyV-68" style="rounded=0;orthogonalLoop=1;jettySize=auto;html=1;endArrow=none;endFill=0;exitX=0.5;exitY=0;exitDx=0;exitDy=0;" edge="1" parent="1" source="xIak3zuEA5ebnnhG0JyV-40" target="xIak3zuEA5ebnnhG0JyV-67">
          <mxGeometry relative="1" as="geometry">
            <mxPoint x="375.6521739130435" y="690" as="sourcePoint" />
          </mxGeometry>
        </mxCell>
        <mxCell id="xIak3zuEA5ebnnhG0JyV-40" value="Manager" style="whiteSpace=wrap;html=1;align=center;" vertex="1" parent="1">
          <mxGeometry x="320" y="710" width="100" height="40" as="geometry" />
        </mxCell>
        <mxCell id="xIak3zuEA5ebnnhG0JyV-47" style="rounded=0;orthogonalLoop=1;jettySize=auto;html=1;entryX=0.5;entryY=0;entryDx=0;entryDy=0;endArrow=none;endFill=0;" edge="1" parent="1" source="xIak3zuEA5ebnnhG0JyV-44" target="xIak3zuEA5ebnnhG0JyV-45">
          <mxGeometry relative="1" as="geometry" />
        </mxCell>
        <mxCell id="xIak3zuEA5ebnnhG0JyV-48" style="rounded=0;orthogonalLoop=1;jettySize=auto;html=1;endArrow=none;endFill=0;" edge="1" parent="1" source="xIak3zuEA5ebnnhG0JyV-44" target="xIak3zuEA5ebnnhG0JyV-46">
          <mxGeometry relative="1" as="geometry" />
        </mxCell>
        <mxCell id="xIak3zuEA5ebnnhG0JyV-71" style="rounded=0;orthogonalLoop=1;jettySize=auto;html=1;entryX=0.5;entryY=0;entryDx=0;entryDy=0;endArrow=none;endFill=0;" edge="1" parent="1" source="xIak3zuEA5ebnnhG0JyV-44" target="xIak3zuEA5ebnnhG0JyV-49">
          <mxGeometry relative="1" as="geometry" />
        </mxCell>
        <mxCell id="xIak3zuEA5ebnnhG0JyV-44" value="Customer" style="whiteSpace=wrap;html=1;align=center;" vertex="1" parent="1">
          <mxGeometry x="550" y="260" width="100" height="40" as="geometry" />
        </mxCell>
        <mxCell id="xIak3zuEA5ebnnhG0JyV-45" value="customer ID" style="ellipse;whiteSpace=wrap;html=1;align=center;" vertex="1" parent="1">
          <mxGeometry x="500" y="180" width="100" height="40" as="geometry" />
        </mxCell>
        <mxCell id="xIak3zuEA5ebnnhG0JyV-46" value="Name" style="ellipse;whiteSpace=wrap;html=1;align=center;" vertex="1" parent="1">
          <mxGeometry x="630" y="180" width="100" height="40" as="geometry" />
        </mxCell>
        <mxCell id="xIak3zuEA5ebnnhG0JyV-54" style="rounded=0;orthogonalLoop=1;jettySize=auto;html=1;entryX=0;entryY=0.5;entryDx=0;entryDy=0;endArrow=none;endFill=0;" edge="1" parent="1" source="xIak3zuEA5ebnnhG0JyV-49" target="xIak3zuEA5ebnnhG0JyV-51">
          <mxGeometry relative="1" as="geometry" />
        </mxCell>
        <mxCell id="xIak3zuEA5ebnnhG0JyV-56" style="rounded=0;orthogonalLoop=1;jettySize=auto;html=1;entryX=0;entryY=0.5;entryDx=0;entryDy=0;endArrow=none;endFill=0;" edge="1" parent="1" source="xIak3zuEA5ebnnhG0JyV-49" target="xIak3zuEA5ebnnhG0JyV-52">
          <mxGeometry relative="1" as="geometry" />
        </mxCell>
        <mxCell id="xIak3zuEA5ebnnhG0JyV-57" style="rounded=0;orthogonalLoop=1;jettySize=auto;html=1;entryX=0.058;entryY=0.303;entryDx=0;entryDy=0;entryPerimeter=0;endArrow=none;endFill=0;" edge="1" parent="1" source="xIak3zuEA5ebnnhG0JyV-49" target="xIak3zuEA5ebnnhG0JyV-53">
          <mxGeometry relative="1" as="geometry" />
        </mxCell>
        <mxCell id="xIak3zuEA5ebnnhG0JyV-72" style="rounded=0;orthogonalLoop=1;jettySize=auto;html=1;entryX=1;entryY=0.75;entryDx=0;entryDy=0;endArrow=none;endFill=0;" edge="1" parent="1" source="xIak3zuEA5ebnnhG0JyV-49" target="xIak3zuEA5ebnnhG0JyV-58">
          <mxGeometry relative="1" as="geometry" />
        </mxCell>
        <mxCell id="xIak3zuEA5ebnnhG0JyV-49" value="order" style="whiteSpace=wrap;html=1;align=center;" vertex="1" parent="1">
          <mxGeometry x="570" y="420" width="100" height="40" as="geometry" />
        </mxCell>
        <mxCell id="xIak3zuEA5ebnnhG0JyV-51" value=" order ID" style="ellipse;whiteSpace=wrap;html=1;align=center;" vertex="1" parent="1">
          <mxGeometry x="740" y="400" width="100" height="40" as="geometry" />
        </mxCell>
        <mxCell id="xIak3zuEA5ebnnhG0JyV-52" value=" order date" style="ellipse;whiteSpace=wrap;html=1;align=center;" vertex="1" parent="1">
          <mxGeometry x="740" y="455" width="100" height="40" as="geometry" />
        </mxCell>
        <mxCell id="xIak3zuEA5ebnnhG0JyV-53" value="sale price" style="ellipse;whiteSpace=wrap;html=1;align=center;" vertex="1" parent="1">
          <mxGeometry x="740" y="510" width="100" height="40" as="geometry" />
        </mxCell>
        <mxCell id="xIak3zuEA5ebnnhG0JyV-70" style="rounded=0;orthogonalLoop=1;jettySize=auto;html=1;entryX=0;entryY=0.5;entryDx=0;entryDy=0;endArrow=none;endFill=0;" edge="1" parent="1" source="xIak3zuEA5ebnnhG0JyV-58" target="xIak3zuEA5ebnnhG0JyV-44">
          <mxGeometry relative="1" as="geometry" />
        </mxCell>
        <mxCell id="xIak3zuEA5ebnnhG0JyV-58" value="Branches" style="whiteSpace=wrap;html=1;align=center;" vertex="1" parent="1">
          <mxGeometry x="100" y="260" width="100" height="40" as="geometry" />
        </mxCell>
        <mxCell id="xIak3zuEA5ebnnhG0JyV-69" style="rounded=0;orthogonalLoop=1;jettySize=auto;html=1;entryX=0.631;entryY=1.027;entryDx=0;entryDy=0;entryPerimeter=0;endArrow=none;endFill=0;" edge="1" parent="1" source="xIak3zuEA5ebnnhG0JyV-84" target="xIak3zuEA5ebnnhG0JyV-58">
          <mxGeometry relative="1" as="geometry" />
        </mxCell>
        <mxCell id="xIak3zuEA5ebnnhG0JyV-67" value="manages" style="shape=rhombus;perimeter=rhombusPerimeter;whiteSpace=wrap;html=1;align=center;" vertex="1" parent="1">
          <mxGeometry x="270" y="450" width="120" height="60" as="geometry" />
        </mxCell>
        <mxCell id="xIak3zuEA5ebnnhG0JyV-82" style="rounded=0;orthogonalLoop=1;jettySize=auto;html=1;entryX=0.873;entryY=0.981;entryDx=0;entryDy=0;endArrow=none;endFill=0;entryPerimeter=0;" edge="1" parent="1" source="xIak3zuEA5ebnnhG0JyV-73" target="xIak3zuEA5ebnnhG0JyV-58">
          <mxGeometry relative="1" as="geometry" />
        </mxCell>
        <mxCell id="xIak3zuEA5ebnnhG0JyV-73" value="Menu" style="whiteSpace=wrap;html=1;align=center;" vertex="1" parent="1">
          <mxGeometry x="530" y="520" width="100" height="40" as="geometry" />
        </mxCell>
        <mxCell id="xIak3zuEA5ebnnhG0JyV-78" style="rounded=0;orthogonalLoop=1;jettySize=auto;html=1;endArrow=none;endFill=0;" edge="1" parent="1" source="xIak3zuEA5ebnnhG0JyV-74" target="xIak3zuEA5ebnnhG0JyV-73">
          <mxGeometry relative="1" as="geometry" />
        </mxCell>
        <mxCell id="xIak3zuEA5ebnnhG0JyV-74" value="item ID" style="ellipse;whiteSpace=wrap;html=1;align=center;" vertex="1" parent="1">
          <mxGeometry x="425" y="590" width="100" height="40" as="geometry" />
        </mxCell>
        <mxCell id="xIak3zuEA5ebnnhG0JyV-79" style="rounded=0;orthogonalLoop=1;jettySize=auto;html=1;endArrow=none;endFill=0;" edge="1" parent="1" source="xIak3zuEA5ebnnhG0JyV-75" target="xIak3zuEA5ebnnhG0JyV-73">
          <mxGeometry relative="1" as="geometry" />
        </mxCell>
        <mxCell id="xIak3zuEA5ebnnhG0JyV-75" value="description" style="ellipse;whiteSpace=wrap;html=1;align=center;" vertex="1" parent="1">
          <mxGeometry x="490" y="630" width="100" height="40" as="geometry" />
        </mxCell>
        <mxCell id="xIak3zuEA5ebnnhG0JyV-80" style="rounded=0;orthogonalLoop=1;jettySize=auto;html=1;entryX=0.75;entryY=1;entryDx=0;entryDy=0;endArrow=none;endFill=0;" edge="1" parent="1" source="xIak3zuEA5ebnnhG0JyV-76" target="xIak3zuEA5ebnnhG0JyV-73">
          <mxGeometry relative="1" as="geometry" />
        </mxCell>
        <mxCell id="xIak3zuEA5ebnnhG0JyV-76" value="size" style="ellipse;whiteSpace=wrap;html=1;align=center;" vertex="1" parent="1">
          <mxGeometry x="600" y="630" width="100" height="40" as="geometry" />
        </mxCell>
        <mxCell id="xIak3zuEA5ebnnhG0JyV-81" style="rounded=0;orthogonalLoop=1;jettySize=auto;html=1;entryX=1;entryY=0.75;entryDx=0;entryDy=0;endArrow=none;endFill=0;" edge="1" parent="1" source="xIak3zuEA5ebnnhG0JyV-77" target="xIak3zuEA5ebnnhG0JyV-73">
          <mxGeometry relative="1" as="geometry" />
        </mxCell>
        <mxCell id="xIak3zuEA5ebnnhG0JyV-77" value="price" style="ellipse;whiteSpace=wrap;html=1;align=center;" vertex="1" parent="1">
          <mxGeometry x="670" y="590" width="100" height="40" as="geometry" />
        </mxCell>
        <mxCell id="xIak3zuEA5ebnnhG0JyV-83" value="1" style="text;html=1;strokeColor=none;fillColor=none;align=center;verticalAlign=middle;whiteSpace=wrap;rounded=0;" vertex="1" parent="1">
          <mxGeometry x="340" y="670" width="60" height="30" as="geometry" />
        </mxCell>
        <mxCell id="xIak3zuEA5ebnnhG0JyV-85" value="" style="rounded=0;orthogonalLoop=1;jettySize=auto;html=1;entryX=0.631;entryY=1.027;entryDx=0;entryDy=0;entryPerimeter=0;endArrow=none;endFill=0;" edge="1" parent="1" source="xIak3zuEA5ebnnhG0JyV-67" target="xIak3zuEA5ebnnhG0JyV-84">
          <mxGeometry relative="1" as="geometry">
            <mxPoint x="311" y="460" as="sourcePoint" />
            <mxPoint x="163" y="301" as="targetPoint" />
          </mxGeometry>
        </mxCell>
        <mxCell id="xIak3zuEA5ebnnhG0JyV-84" value="1" style="text;html=1;strokeColor=none;fillColor=none;align=center;verticalAlign=middle;whiteSpace=wrap;rounded=0;" vertex="1" parent="1">
          <mxGeometry x="150" y="310" width="60" height="30" as="geometry" />
        </mxCell>
        <mxCell id="xIak3zuEA5ebnnhG0JyV-86" value="1" style="text;html=1;strokeColor=none;fillColor=none;align=center;verticalAlign=middle;whiteSpace=wrap;rounded=0;" vertex="1" parent="1">
          <mxGeometry x="590" y="300" width="60" height="30" as="geometry" />
        </mxCell>
        <mxCell id="xIak3zuEA5ebnnhG0JyV-87" value="1" style="text;html=1;strokeColor=none;fillColor=none;align=center;verticalAlign=middle;whiteSpace=wrap;rounded=0;" vertex="1" parent="1">
          <mxGeometry x="200" y="280" width="60" height="30" as="geometry" />
        </mxCell>
        <mxCell id="xIak3zuEA5ebnnhG0JyV-88" value="1:M" style="text;html=1;strokeColor=none;fillColor=none;align=center;verticalAlign=middle;whiteSpace=wrap;rounded=0;" vertex="1" parent="1">
          <mxGeometry x="540" y="390" width="60" height="30" as="geometry" />
        </mxCell>
        <mxCell id="xIak3zuEA5ebnnhG0JyV-89" value="1:M" style="text;html=1;strokeColor=none;fillColor=none;align=center;verticalAlign=middle;whiteSpace=wrap;rounded=0;" vertex="1" parent="1">
          <mxGeometry x="610" y="385" width="60" height="30" as="geometry" />
        </mxCell>
      </root>
    </mxGraphModel>
  </diagram>
</mxfile>
